<svg width="32" height="32" version="1.1" viewBox="0 0 8.5 8.5" xmlns="http://www.w3.org/2000/svg" class="hunt-icon">
  <path d="m6.4 0.79 1.2 0.82s-0.45 0.67-1.1 0.26c-0.61-0.41-0.16-1.1-0.16-1.1z" style="fill:none;stroke-width:.34;stroke:currentColor"/>
  <path d="m3.4 4.3 2.1 1.5-0.91 1.1c-0.22 0.26-0.66 0.35-0.91 0.38-0.19 0.021-0.44-0.02-0.62-0.12-0.19-0.1-0.33-0.3-0.38-0.48-0.093-0.32-0.18-0.72 0.0029-1.1z" style="fill:none;stroke-width:.42;stroke:currentColor"/>
  <path d="m6.3 1.6-2.2 3.3" style="fill:none;stroke-width:.26;stroke:currentColor"/>
  <path d="m6.8 1.9-2.2 3.3" style="fill:none;stroke-width:.42;stroke:currentColor"/>
  <path d="m4.2 5.3 0.16 0.12-0.19 0.35-0.3 0.29-0.4 0.26 0.35-0.37 0.21-0.31z" style="fill:currentColor"/>
  <path d="m8.3 7-1.2-0.32-1.1 0.31-0.49-0.11" style="fill:none;stroke-width:.26;stroke:currentColor"/>
  <path d="m0.27 7 0.53-0.17 0.66 0.073 0.5-0.17" style="fill:none;stroke-width:.26;stroke:currentColor"/>
</svg>
